# File created by Blade
# Date/Time:  Wed Jan 21 17:41:14 2015
# Frame Rate: 120.000 fps
#------------------------------------------------------
:FULLY-SPECIFIED
:DEGREES
881
root 17.222227 6.972587 -22.920019 -169.539608 88.781338 -259.464586
Spine -8.835132 -0.571871 -0.510222
Head 27.597326 -0.288968 1.057028
LeftShoulder -19.937783 -7.659135 16.709949
LeftArm 27.244708 36.447755 -28.051347
LeftForeArm 24.363168 0.000000 110.091508
LeftHand -3.794480 -0.000000 59.569478
LeftHandThumb1 -26.253704 0.000000 33.147579
RightShoulder -19.854301 -26.562759 -7.038623
RightArm 37.987344 -2.388161 37.698549
RightForeArm -46.720112 -0.000000 111.945447
RightHand -7.843371 -0.000000 -49.805360
RightHandThumb1 -24.326973 -0.000000 -32.862282
LeftUpLeg -3.894973 4.616713 -2.597242
LeftLeg 3.403026 -0.000000 -0.000000
LeftFoot -19.497741 24.435496 -14.923740
LeftToeBase -33.347391 -0.000000 0.000000
RightUpLeg -4.597822 5.667894 4.595886
RightLeg 7.235897 -0.000000 -0.000000
RightFoot -26.241257 -17.895735 20.167056
RightToeBase -41.953404 -0.000000 0.000000
882
root 17.230505 6.964782 -22.920819 -172.005559 88.765717 -261.962921
Spine -8.812046 -0.595464 -0.563104
Head 27.655144 -0.242015 1.028731
LeftShoulder -19.969204 -7.611758 16.684747
LeftArm 27.146484 36.385931 -28.121938
LeftForeArm 24.496389 0.000000 110.188151
LeftHand -3.852714 -0.000000 59.484793
LeftHandThumb1 -26.253704 0.000000 33.147579
RightShoulder -20.027636 -26.707434 -6.866524
RightArm 38.170482 -2.300264 37.505364
RightForeArm -46.752199 -0.000000 111.995954
RightHand -7.952099 -0.000000 -49.910286
RightHandThumb1 -24.326973 -0.000000 -32.862282
LeftUpLeg -3.923034 4.499939 -2.605600
LeftLeg 3.451861 -0.000000 -0.000000
LeftFoot -19.437174 24.372221 -14.818357
LeftToeBase -33.238779 -0.000000 0.000000
RightUpLeg -4.597800 5.606192 4.583058
RightLeg 7.218230 -0.000000 -0.000000
RightFoot -26.405919 -18.074873 19.873492
RightToeBase -35.892563 -0.000000 0.000000
883
root 17.239773 6.955605 -22.922493 -174.167307 88.761281 -264.153157
Spine -8.798580 -0.566624 -0.614332
Head 27.732597 -0.197890 1.034063
LeftShoulder -19.984654 -7.574894 16.650731
LeftArm 27.118121 36.357213 -28.129043
LeftForeArm 24.577549 -0.000000 110.258720
LeftHand -3.867420 -0.000000 59.428114
LeftHandThumb1 -26.253704 0.000000 33.147579
RightShoulder -20.087680 -26.755207 -6.840622
RightArm 38.134740 -2.338489 37.478700
RightForeArm -46.857562 -0.000000 112.083938
RightHand -8.109619 0.000000 -50.328194
RightHandThumb1 -24.326973 -0.000000 -32.862282
LeftUpLeg -3.923788 4.392348 -2.613893
LeftLeg 3.454193 -0.000000 -0.000000
LeftFoot -19.336051 24.280704 -14.833196
LeftToeBase -33.596102 -0.000000 0.000000
RightUpLeg -4.577074 5.533525 4.568285
RightLeg 7.153107 -0.000000 -0.000000
RightFoot -26.482402 -18.278165 19.649878
RightToeBase -34.715663 -0.000000 0.000000
884
root 17.248871 6.945141 -22.924740 -176.428979 88.773179 -266.438100
Spine -8.789927 -0.519282 -0.672060
Head 27.813964 -0.277853 0.959416
LeftShoulder -20.018478 -7.609480 16.633946
LeftArm 27.111689 36.405797 -28.094731
LeftForeArm 24.659111 -0.000000 110.316717
LeftHand -3.940128 -0.000000 59.434888
LeftHandThumb1 -26.253704 0.000000 33.147579
RightShoulder -20.142510 -26.909201 -6.805855
RightArm 38.130778 -2.299815 37.526210
RightForeArm -46.893219 -0.000000 112.171164
RightHand -8.095483 0.000000 -50.466059
RightHandThumb1 -24.326973 -0.000000 -32.862282
LeftUpLeg -3.916606 4.282632 -2.628842
LeftLeg 3.437076 -0.000000 -0.000000
LeftFoot -19.219195 24.145649 -14.939482
LeftToeBase -34.056587 -0.000000 0.000000
RightUpLeg -4.578759 5.402678 4.549212
RightLeg 7.142188 -0.000000 -0.000000
RightFoot -26.494915 -18.306136 19.709216
RightToeBase -34.563201 -0.000000 0.000000
885
root 17.257392 6.934957 -22.925213 -178.333777 88.800249 -268.365320
Spine -8.783983 -0.489830 -0.715219
Head 27.886427 -0.263451 0.919495
LeftShoulder -20.083173 -7.675236 16.628581
LeftArm 27.077578 36.482222 -28.046901
LeftForeArm 24.690790 0.000000 110.365767
LeftHand -3.911595 0.000000 59.439330
LeftHandThumb1 -26.253704 0.000000 33.147579
RightShoulder -20.174792 -27.028858 -6.814745
RightArm 38.138873 -2.303302 37.614636
RightForeArm -46.894726 -0.000000 112.234151
RightHand -8.025683 0.000000 -50.509175
RightHandThumb1 -24.326973 -0.000000 -32.862282
LeftUpLeg -3.911841 4.133196 -2.634498
LeftLeg 3.446057 -0.000000 -0.000000
LeftFoot -19.185856 24.302310 -14.913387
LeftToeBase -33.646014 -0.000000 0.000000
RightUpLeg -4.535643 5.377581 4.531703
RightLeg 7.045113 -0.000000 -0.000000
RightFoot -26.496570 -18.396101 19.715658
RightToeBase -34.198450 -0.000000 0.000000
886
root 17.263784 6.925415 -22.928506 -181.749393 88.832736 -271.800055
Spine -8.777955 -0.444640 -0.792449
Head 27.954367 -0.245806 0.891830
LeftShoulder -20.151266 -7.675533 16.609610
LeftArm 27.110781 36.494047 -27.991202
LeftForeArm 24.679219 -0.000000 110.390404
LeftHand -3.907901 -0.000000 59.433415
LeftHandThumb1 -26.253704 0.000000 33.147579
RightShoulder -20.205456 -27.136669 -6.835655
RightArm 38.132247 -2.309338 37.720674
RightForeArm -46.919874 0.000000 112.297940
RightHand -7.930643 -0.000000 -50.514690
RightHandThumb1 -24.326973 -0.000000 -32.862282
LeftUpLeg -3.906845 4.005355 -2.674518
LeftLeg 3.457416 -0.000000 -0.000000
LeftFoot -19.122341 24.304397 -14.964420
LeftToeBase -33.888391 -0.000000 0.000000
RightUpLeg -4.517899 5.325161 4.483322
RightLeg 7.022961 -0.000000 -0.000000
RightFoot -26.638087 -18.614215 19.274473
RightToeBase -32.564606 -0.000000 0.000000
887
root 17.271103 6.914630 -22.929777 -184.696070 88.885116 -274.763020
Spine -8.779192 -0.369393 -0.857421
Head 28.031486 -0.256817 0.840205
LeftShoulder -20.197236 -7.679659 16.600732
LeftArm 27.097688 36.515966 -27.991340
LeftForeArm 24.667922 -0.000000 110.422540
LeftHand -3.891971 -0.000000 59.472620
LeftHandThumb1 -26.253704 0.000000 33.147579
RightShoulder -20.208022 -27.142218 -6.887212
RightArm 38.038708 -2.391064 37.804986
RightForeArm -46.978105 0.000000 112.369749
RightHand -7.889668 -0.000000 -50.563661
RightHandThumb1 -24.326973 -0.000000 -32.862282
LeftUpLeg -3.891195 3.913102 -2.698664
LeftLeg 3.452624 -0.000000 -0.000000
LeftFoot -19.087052 24.330766 -15.013364
LeftToeBase -34.169090 -0.000000 0.000000
RightUpLeg -4.471403 5.368711 4.442768
RightLeg 6.943081 -0.000000 -0.000000
RightFoot -26.716824 -18.742758 19.106772
RightToeBase -30.216799 -0.000000 0.000000
888
root 17.278022 6.904289 -22.930907 -187.470199 88.935478 -277.544600
Spine -8.766844 -0.309882 -0.907106
Head 28.084096 -0.243944 0.790560
LeftShoulder -20.241635 -7.666299 16.584244
LeftArm 27.035630 36.494992 -28.052803
LeftForeArm 24.714171 -0.000000 110.457601
LeftHand -3.868803 -0.000000 59.421861
LeftHandThumb1 -26.253704 0.000000 33.147579
RightShoulder -20.199371 -27.112564 -6.939362
RightArm 37.947229 -2.485279 37.833813
RightForeArm -47.018676 -0.000000 112.441772
RightHand -7.866046 -0.000000 -50.588140
RightHandThumb1 -24.326973 -0.000000 -32.862282
LeftUpLeg -3.870930 3.792106 -2.712789
LeftLeg 3.463575 -0.000000 -0.000000
LeftFoot -19.080877 24.393044 -15.054948
LeftToeBase -34.283427 -0.000000 0.000000
RightUpLeg -4.469903 5.305134 4.423875
RightLeg 6.982074 -0.000000 -0.000000
RightFoot -26.501385 -18.611130 18.927953
RightToeBase -29.285336 -0.000000 0.000000
889
root 17.283499 6.893481 -22.932624 -189.935480 88.993222 -280.025646
Spine -8.777144 -0.244403 -0.936748
Head 28.140484 -0.247487 0.712873
LeftShoulder -20.261243 -7.613582 16.557836
LeftArm 26.949171 36.452808 -28.150748
LeftForeArm 24.757422 -0.000000 110.505842
LeftHand -3.861318 -0.000000 59.368647
LeftHandThumb1 -26.253704 0.000000 33.147579
RightShoulder -20.200323 -27.080716 -6.958337
RightArm 37.865968 -2.557540 37.784618
RightForeArm -47.052127 -0.000000 112.516831
RightHand -7.907843 -0.000000 -50.641649
RightHandThumb1 -24.326973 -0.000000 -32.862282
LeftUpLeg -3.852358 3.702496 -2.720361
LeftLeg 3.459737 -0.000000 -0.000000
LeftFoot -19.049728 24.415688 -14.929690
LeftToeBase -34.926552 -0.000000 0.000000
RightUpLeg -4.466770 5.198351 4.401514
RightLeg 6.942413 -0.000000 -0.000000
RightFoot -26.639352 -18.637302 19.149133
RightToeBase -30.249064 -0.000000 0.000000
890
root 17.288417 6.883626 -22.935250 -193.164124 89.067390 -283.264224
Spine -8.780042 -0.148623 -0.971998
Head 28.182168 -0.263639 0.654721
LeftShoulder -20.229859 -7.620153 16.544473
LeftArm 26.769701 36.445799 -28.291330
LeftForeArm 24.870485 0.000000 110.587269
LeftHand -3.880960 -0.000000 59.269680
LeftHandThumb1 -26.253704 0.000000 33.147579
RightShoulder -20.240104 -27.069875 -6.930445
RightArm 37.828886 -2.595997 37.680203
RightForeArm -47.052551 -0.000000 112.576200
RightHand -7.908129 -0.000000 -50.695043
RightHandThumb1 -24.326973 -0.000000 -32.862282
LeftUpLeg -3.823463 3.634013 -2.734304
LeftLeg 3.442790 -0.000000 -0.000000
LeftFoot -19.104869 24.526765 -15.086552
LeftToeBase -34.457320 -0.000000 0.000000
RightUpLeg -4.483839 5.096579 4.383667
RightLeg 6.967977 -0.000000 -0.000000
RightFoot -26.609286 -18.592694 19.149578
RightToeBase -30.391465 -0.000000 0.000000
891
root 17.293173 6.872597 -22.937483 -195.802517 89.157967 -285.906452
Spine -8.780748 -0.034832 -0.982067
Head 28.220291 -0.282827 0.614142
LeftShoulder -20.223320 -7.637279 16.523995
LeftArm 26.646942 36.449366 -28.392535
LeftForeArm 24.939636 -0.000000 110.656397
LeftHand -3.911236 -0.000000 59.220296
LeftHandThumb1 -26.253704 0.000000 33.147579
RightShoulder -20.289829 -27.091634 -6.883700
RightArm 37.813407 -2.588943 37.567320
RightForeArm -47.028263 -0.000000 112.638451
RightHand -7.927146 -0.000000 -50.750967
RightHandThumb1 -24.326973 -0.000000 -32.862282
LeftUpLeg -3.785161 3.575181 -2.731862
LeftLeg 3.428806 -0.000000 -0.000000
LeftFoot -19.086806 24.606335 -15.077214
LeftToeBase -34.504881 -0.000000 0.000000
RightUpLeg -4.522654 4.950759 4.389046
RightLeg 7.048385 -0.000000 -0.000000
RightFoot -26.587276 -18.438774 19.208740
RightToeBase -30.534871 -0.000000 0.000000
